<?xml version="1.0" standalone="no"?>
<!DOCTYPE svg PUBLIC "-//W3C//DTD SVG 20010904//EN"
 "http://www.w3.org/TR/2001/REC-SVG-20010904/DTD/svg10.dtd">
<svg version="1.0" xmlns="http://www.w3.org/2000/svg"
 width="512.000000pt" height="512.000000pt" viewBox="0 0 512.000000 512.000000"
 preserveAspectRatio="xMidYMid meet">

<g transform="translate(0.000000,512.000000) scale(0.100000,-0.100000)"
fill="#000000" stroke="none">
<path d="M2325 5109 c-1081 -101 -1981 -870 -2245 -1919 -178 -709 -50 -1454
353 -2055 106 -157 285 -369 345 -406 62 -40 171 -16 203 43 45 85 31 134 -72
246 -752 817 -812 2020 -147 2910 93 124 306 337 430 430 822 615 1914 615
2736 0 192 -144 420 -394 551 -605 549 -885 420 -2039 -309 -2774 -63 -64
-151 -144 -195 -179 -444 -351 -1010 -531 -1551 -492 -340 24 -590 92 -903
246 -63 31 -126 56 -140 56 -44 0 -113 -41 -133 -80 -25 -48 -23 -109 5 -151
59 -88 475 -261 780 -323 398 -82 773 -73 1173 29 177 45 298 91 489 185 468
229 846 588 1104 1047 463 825 419 1875 -112 2668 -520 776 -1432 1210 -2362
1124z"/>
<path d="M2479 3767 c-70 -47 -69 -34 -69 -599 l0 -508 -507 0 c-464 0 -511
-2 -542 -18 -55 -27 -76 -64 -76 -132 0 -67 20 -102 75 -131 32 -18 67 -19
542 -19 l508 0 0 -506 c0 -559 -1 -551 64 -597 43 -31 129 -31 172 0 65 46 64
38 64 597 l0 506 508 0 c475 0 510 1 542 19 55 29 75 64 75 131 0 68 -21 105
-76 132 -31 16 -78 18 -541 18 l-508 0 0 508 c0 463 -2 510 -18 542 -25 50
-75 80 -132 80 -32 0 -58 -7 -81 -23z"/>
</g>
</svg>
