<?xml version="1.0" standalone="no"?>
<!DOCTYPE svg PUBLIC "-//W3C//DTD SVG 20010904//EN"
 "http://www.w3.org/TR/2001/REC-SVG-20010904/DTD/svg10.dtd">
<svg version="1.0" xmlns="http://www.w3.org/2000/svg"
 width="512.000000pt" height="512.000000pt" viewBox="0 0 512.000000 512.000000"
 preserveAspectRatio="xMidYMid meet">

<g transform="translate(0.000000,512.000000) scale(0.100000,-0.100000)"
fill="#000000" stroke="none">
<path d="M4035 4400 c-176 -54 -999 -308 -1830 -564 -830 -256 -1521 -474
-1535 -484 -14 -10 -31 -37 -39 -59 -13 -35 -13 -46 0 -79 8 -21 28 -48 45
-59 17 -11 425 -159 907 -330 l877 -310 317 -950 c312 -933 319 -950 352 -972
20 -13 49 -23 70 -23 39 0 94 29 109 57 5 10 276 854 601 1877 443 1390 590
1866 586 1887 -12 53 -78 110 -127 109 -7 -1 -157 -45 -333 -100z m129 -252
c-23 -76 -938 -2952 -951 -2993 l-16 -50 -244 730 c-134 402 -242 735 -241
741 2 7 190 192 418 412 228 221 425 415 438 433 75 108 -52 249 -163 180 -16
-10 -221 -203 -455 -430 -233 -226 -427 -410 -431 -409 -3 2 -310 111 -682
243 -372 132 -675 241 -673 242 4 5 2981 922 2994 922 9 1 11 -6 6 -21z"/>
<path d="M1230 2673 c-41 -21 -557 -633 -591 -701 -19 -38 -20 -49 -10 -82 13
-44 57 -85 101 -95 67 -15 96 13 385 364 171 208 275 342 284 368 13 36 12 43
-5 78 -35 72 -102 99 -164 68z"/>
<path d="M1865 2031 c-25 -13 -260 -241 -631 -613 -635 -636 -628 -629 -604
-703 25 -75 103 -110 173 -76 29 14 225 203 634 613 653 655 636 635 597 714
-37 73 -102 98 -169 65z"/>
<path d="M2502 1388 c-23 -13 -186 -142 -362 -288 -273 -226 -322 -271 -336
-307 -13 -34 -14 -48 -4 -77 23 -70 99 -109 162 -83 31 13 584 462 671 546 52
50 65 97 41 147 -38 75 -103 99 -172 62z"/>
</g>
</svg>
