<?xml version="1.0" standalone="no"?>
<!DOCTYPE svg PUBLIC "-//W3C//DTD SVG 20010904//EN"
 "http://www.w3.org/TR/2001/REC-SVG-20010904/DTD/svg10.dtd">
<svg version="1.0" xmlns="http://www.w3.org/2000/svg"
 width="512.000000pt" height="512.000000pt" viewBox="0 0 512.000000 512.000000"
 preserveAspectRatio="xMidYMid meet">

<g transform="translate(0.000000,512.000000) scale(0.100000,-0.100000)"
fill="#000000" stroke="none">
<path d="M2451 4259 c-125 -16 -297 -84 -391 -153 -169 -127 -294 -322 -335
-525 -21 -101 -16 -293 9 -386 24 -91 108 -252 169 -326 291 -352 810 -409
1179 -130 133 101 250 275 298 441 31 107 38 289 15 401 -73 362 -366 632
-737 679 -92 11 -115 11 -207 -1z"/>
<path d="M2277 2114 c-65 -7 -186 -27 -269 -44 -567 -117 -988 -346 -1110
-605 -42 -90 -49 -150 -46 -391 l3 -219 1705 0 1705 0 3 219 c1 121 -2 244 -8
275 -49 274 -376 511 -916 665 -358 102 -737 138 -1067 100z"/>
</g>
</svg>
