<?xml version="1.0" standalone="no"?>
<!DOCTYPE svg PUBLIC "-//W3C//DTD SVG 20010904//EN"
 "http://www.w3.org/TR/2001/REC-SVG-20010904/DTD/svg10.dtd">
<svg version="1.0" xmlns="http://www.w3.org/2000/svg"
 width="512.000000pt" height="512.000000pt" viewBox="0 0 512.000000 512.000000"
 preserveAspectRatio="xMidYMid meet">

<g transform="translate(0.000000,512.000000) scale(0.100000,-0.100000)"
fill="#000000" stroke="none">
<path d="M1775 5114 c-475 -51 -858 -225 -1184 -539 -306 -295 -495 -659 -568
-1095 -23 -143 -23 -417 0 -560 73 -436 262 -800 568 -1095 508 -490 1218
-661 1889 -457 221 68 433 179 601 316 l56 45 6 -73 c3 -41 12 -87 20 -102 9
-16 341 -354 739 -750 694 -693 725 -722 783 -744 126 -46 245 -19 345 79 48
47 62 68 76 117 15 51 15 67 5 119 -7 33 -26 80 -41 105 -16 25 -346 360 -732
746 -761 759 -735 736 -859 751 -27 3 -49 9 -49 13 0 4 15 27 34 52 144 188
277 494 331 763 89 440 33 863 -166 1255 -283 558 -800 934 -1424 1035 -99 16
-352 27 -430 19z m326 -485 c423 -55 791 -285 1023 -639 437 -666 251 -1558
-414 -1994 -666 -437 -1558 -251 -1994 414 -437 666 -251 1558 414 1994 286
188 635 269 971 225z"/>
</g>
</svg>
